<?xml version="1.0" encoding="UTF-8"?>
<svg width="3300px" height="2200px" viewBox="0 0 3300 2200" version="1.1" xmlns="http://www.w3.org/2000/svg" xmlns:xlink="http://www.w3.org/1999/xlink">
    <!-- Generator: Sketch 63 (92445) - https://sketch.com -->
    <title>Crayon</title>
    <desc>Created with Sketch.</desc>
    <g id="Page-1" stroke="none" stroke-width="1" fill="none" fill-rule="evenodd">
        <g id="paperclip">
            <g id="Notes">
                <rect id="artboard" fill="#FFFFFF" fill-rule="nonzero" x="0" y="0" width="3300" height="2200"></rect>
                <line x1="263" y1="292" x2="3036" y2="292" id="Path" stroke="#000000" stroke-width="0.5"></line>
                <text id="Weight/Scale-Variations" fill="#000000" font-family="Helvetica-Bold, Helvetica" font-size="13" font-weight="bold">
                    <tspan x="263" y="322">Weight/Scale Variations</tspan>
                </text>
                <text id="Ultralight" fill="#000000" font-family="Helvetica" font-size="13" font-weight="normal">
                    <tspan x="533.711" y="322">Ultralight</tspan>
                </text>
                <text id="Thin" fill="#000000" font-family="Helvetica" font-size="13" font-weight="normal">
                    <tspan x="843.422" y="322">Thin</tspan>
                </text>
                <text id="Light" fill="#000000" font-family="Helvetica" font-size="13" font-weight="normal">
                    <tspan x="1138.63" y="322">Light</tspan>
                </text>
                <text id="Regular" fill="#000000" font-family="Helvetica" font-size="13" font-weight="normal">
                    <tspan x="1426.84" y="322">Regular</tspan>
                </text>
                <text id="Medium" fill="#000000" font-family="Helvetica" font-size="13" font-weight="normal">
                    <tspan x="1723.06" y="322">Medium</tspan>
                </text>
                <text id="Semibold" fill="#000000" font-family="Helvetica" font-size="13" font-weight="normal">
                    <tspan x="2015.77" y="322">Semibold</tspan>
                </text>
                <text id="Bold" fill="#000000" font-family="Helvetica" font-size="13" font-weight="normal">
                    <tspan x="2326.48" y="322">Bold</tspan>
                </text>
                <text id="Heavy" fill="#000000" font-family="Helvetica" font-size="13" font-weight="normal">
                    <tspan x="2618.19" y="322">Heavy</tspan>
                </text>
                <text id="Black" fill="#000000" font-family="Helvetica" font-size="13" font-weight="normal">
                    <tspan x="2917.4" y="322">Black</tspan>
                </text>
                <line x1="263" y1="1903" x2="3036" y2="1903" id="Path" stroke="#000000" stroke-width="0.5"></line>
                <g id="Group" transform="translate(264.000000, 1918.000000)" fill="#000000" fill-rule="nonzero">
                    <path d="M8.24805,15.830078 C12.5547,15.830078 16.1387,12.25586 16.1387,7.94922 C16.1387,3.6426 12.5449,0.0684 8.23828,0.0684 C3.94141,0.0684 0.36719,3.6426 0.36719,7.94922 C0.36719,12.25586 3.95117,15.830078 8.24805,15.830078 Z M8.24805,14.345703 C4.70312,14.345703 1.87109,11.50391 1.87109,7.94922 C1.87109,4.3945 4.69336,1.5527 8.23828,1.5527 C11.793,1.5527 14.6348,4.3945 14.6445252,7.94922 C14.6543,11.50391 11.8027,14.345703 8.24805,14.345703 Z M8.22852,11.57227 C8.69727,11.57227 8.9707,11.25977 8.9707,10.74219 L8.9707,8.68164 L11.1973,8.68164 C11.6953,8.68164 12.0371,8.42773 12.0371,7.95898 C12.0371,7.48047 11.7148,7.2168 11.1973,7.2168 L8.9707,7.2168 L8.9707,4.9902 C8.9707,4.4727 8.69727,4.1504 8.22852,4.1504 C7.75977,4.1504 7.50586,4.4922 7.50586,4.9902 L7.50586,7.2168 L5.29883,7.2168 C4.78125,7.2168 4.44922,7.48047 4.44922,7.95898 C4.44922,8.42773 4.80078,8.68164 5.29883,8.68164 L7.50586,8.68164 L7.50586,10.74219 C7.50586,11.24023 7.75977,11.57227 8.22852,11.57227 Z" id="Shape"></path>
                </g>
                <g id="Group" transform="translate(282.506000, 1915.000000)" fill="#000000" fill-rule="nonzero">
                    <path d="M10.709,20.91016 C16.1582,20.91016 20.6699,16.39844 20.6699,10.94922 C20.6699,5.5098 16.1484,0.9883 10.6992,0.9883 C5.25977,0.9883 0.74805,5.5098 0.74805,10.94922 C0.74805,16.39844 5.26953,20.91016 10.709,20.91016 Z M10.709,19.25 C6.09961,19.25 2.41797,15.55859 2.41797,10.94922 C2.41797,6.3496 6.08984,2.6484 10.6992,2.6484 C15.3086,2.6484 19,6.3496 19.009819,10.94922 C19.0195,15.55859 15.3184,19.25 10.709,19.25 Z M10.6895,15.58789 C11.207,15.58789 11.5195,15.22656 11.5195,14.66016 L11.5195,11.76953 L14.5762,11.76953 C15.123,11.76953 15.5039,11.48633 15.5039,10.96875 C15.5039,10.44141 15.1426,10.13867 14.5762,10.13867 L11.5195,10.13867 L11.5195,7.0723 C11.5195,6.4961 11.207,6.1445 10.6895,6.1445 C10.1719,6.1445 9.8789,6.5156 9.8789,7.0723 L9.8789,10.13867 L6.83203,10.13867 C6.26562,10.13867 5.89453,10.44141 5.89453,10.96875 C5.89453,11.48633 6.28516,11.76953 6.83203,11.76953 L9.8789,11.76953 L9.8789,14.66016 C9.8789,15.20703 10.1719,15.58789 10.6895,15.58789 Z" id="Shape"></path>
                </g>
                <g id="Group" transform="translate(306.924000, 1913.000000)" fill="#000000" fill-rule="nonzero">
                    <path d="M12.9707,25.67383 C19.9336,25.67383 25.6953,19.921875 25.6953,12.95898 C25.6953,5.9961 19.9238,0.2441 12.9609,0.2441 C6.00781,0.2441 0.25586,5.9961 0.25586,12.95898 C0.25586,19.921875 6.01758,25.67383 12.9707,25.67383 Z M12.9707,23.85742 C6.93555,23.85742 2.08203,18.99414 2.08203,12.95898 C2.08203,6.9238 6.92578,2.0605 12.9609,2.0605 C19.0059,2.0605 23.8594,6.9238 23.8691148,12.95898 C23.8789,18.99414 19.0156,23.85742 12.9707,23.85742 Z M12.9512,18.93555 C13.5176,18.93555 13.8691,18.54492 13.8691,17.93945 L13.8691,13.86719 L18.1074,13.86719 C18.6934,13.86719 19.1133,13.53516 19.1133,12.97852 C19.1133,12.40234 18.7227,12.06055 18.1074,12.06055 L13.8691,12.06055 L13.8691,7.8125 C13.8691,7.1973 13.5176,6.8066 12.9512,6.8066 C12.3848,6.8066 12.0625,7.2168 12.0625,7.8125 L12.0625,12.06055 L7.83398,12.06055 C7.21875,12.06055 6.80859,12.40234 6.80859,12.97852 C6.80859,13.53516 7.23828,13.86719 7.83398,13.86719 L12.0625,13.86719 L12.0625,17.93945 C12.0625,18.52539 12.3848,18.93555 12.9512,18.93555 Z" id="Shape"></path>
                </g>
                <text id="Design-Variations" fill="#000000" font-family="Helvetica-Bold, Helvetica" font-size="13" font-weight="bold">
                    <tspan x="263" y="1953">Design Variations</tspan>
                </text>
                <text id="Symbols-are-supported-in-up-to-nine-weights-and-three-scales." fill="#000000" font-family="Helvetica" font-size="13" font-weight="normal">
                    <tspan x="263" y="1971">Symbols are supported in up to nine weights and three scales.</tspan>
                </text>
                <text id="For-optimal-layout-with-text-and-other-symbols,-vertically-align" fill="#000000" font-family="Helvetica" font-size="13" font-weight="normal">
                    <tspan x="263" y="1989">For optimal layout with text and other symbols, vertically align</tspan>
                </text>
                <text id="symbols-with-the-adjacent-text." fill="#000000" font-family="Helvetica" font-size="13" font-weight="normal">
                    <tspan x="263" y="2007">symbols with the adjacent text.</tspan>
                </text>
                <rect id="Rectangle" fill="#00AEEF" fill-rule="nonzero" opacity="0.4" x="776" y="1919" width="3" height="14"></rect>
                <g id="Group" transform="translate(779.000000, 1918.000000)" fill="#000000" fill-rule="nonzero">
                    <path d="M10.5273,15 L12.373,15 L7.17773,0.9082 L5.43945,0.9082 L0.244141,15 L2.08984,15 L3.50586,10.9668 L9.11133,10.9668 L10.5273,15 Z M6.2793,3.0469 L6.33789,3.0469 L8.59375,9.47266 L4.02344,9.47266 L6.2793,3.0469 Z" id="Shape"></path>
                </g>
                <rect id="Rectangle" fill="#00AEEF" fill-rule="nonzero" opacity="0.4" x="791.617" y="1919" width="3" height="14"></rect>
                <text id="Margins" fill="#000000" font-family="Helvetica-Bold, Helvetica" font-size="13" font-weight="bold">
                    <tspan x="776" y="1953">Margins</tspan>
                </text>
                <text id="Leading-and-trailing-margins-on-the-left-and-right-side-of-each-symbol" fill="#000000" font-family="Helvetica" font-size="13" font-weight="normal">
                    <tspan x="776" y="1971">Leading and trailing margins on the left and right side of each symbol</tspan>
                </text>
                <text id="can-be-adjusted-by-modifying-the-width-of-the-blue-rectangles." fill="#000000" font-family="Helvetica" font-size="13" font-weight="normal">
                    <tspan x="776" y="1989">can be adjusted by modifying the width of the blue rectangles.</tspan>
                </text>
                <text id="Modifications-are-automatically-applied-proportionally-to-all" fill="#000000" font-family="Helvetica" font-size="13" font-weight="normal">
                    <tspan x="776" y="2007">Modifications are automatically applied proportionally to all</tspan>
                </text>
                <text id="scales-and-weights." fill="#000000" font-family="Helvetica" font-size="13" font-weight="normal">
                    <tspan x="776" y="2025">scales and weights.</tspan>
                </text>
                <g id="Group" transform="translate(1291.000000, 1915.000000)" fill="#000000" fill-rule="nonzero">
                    <path d="M0.83203,21.11523 L2.375,22.6582 C3.22461,23.48828 4.19141,23.41992 5.06055,22.46289 L15.2754,11.33984 C15.7051,11.63281 16.0957,11.62305 16.5645,11.52539 L17.6094,11.31055 L18.3027,12.00391 L18.2539,12.52148 C18.1855,13.04883 18.3516,13.46875 18.8496,13.9668 L19.6602,14.77734 C20.168,15.28516 20.8223,15.31445 21.3008,14.83594 L24.5527,11.58398 C25.0312,11.10547 25.0117,10.45117 24.5039,9.94336 L23.6836,9.12305 C23.1855,8.625 22.7754,8.44922 22.2383,8.52734 L21.7109,8.58594 L21.0566,7.9219 L21.3398,6.7793 C21.4863,6.2129 21.3398,5.7441 20.7148,5.1387 L18.3027,2.7461 C14.7578,-0.7793 10.2266,-0.6719 7.11133,2.4629 C6.69141,2.8926 6.64258,3.4785 6.91602,3.9082 C7.15039,4.2793 7.62891,4.5039 8.2734,4.3379 C9.7871,3.957 11.3008,4.0742 12.7852,5.0801 L12.1602,6.6621 C11.9258,7.248 11.9453,7.7266 12.1797,8.16602 L1.01758,18.439453 C0.08008,19.30859 -0.02734,20.25586 0.83203,21.11523 Z M8.6738,2.8535 C11.3398,0.8613 14.6504,1.1738 17.0527,3.5859 L19.6797,6.1934 C19.9141,6.4277 19.9434,6.6133 19.8848,6.9062 L19.5039,8.46875 L21.0762,10.04102 L22.043,9.95312 C22.3262,9.92383 22.4141,9.94336 22.6387,10.16797 L23.2637,10.79297 L20.5098,13.53711 L19.8848,12.92188 C19.6602,12.69727 19.6406,12.59961 19.6699,12.31641 L19.7578,11.35938 L18.1953,9.79688 L16.5742,10.10938 C16.291,10.16797 16.1445,10.16797 15.9102,9.92383 L13.7324,7.7461 C13.5078,7.5117 13.4785,7.375 13.6055,7.0527 L14.5527,4.7773 C12.9512,3.2441 10.8418,2.3945 8.8008,3.0488 C8.7129,3.0781 8.6445,3.0586 8.6152,3.0195 C8.5859,2.9707 8.5859,2.9219 8.6738,2.8535 Z M2.10156,20.41211 C1.61328,19.91406 1.78906,19.61133 2.12109,19.30859 L13.0781,9.19141 L14.3086,10.42188 L4.15234,21.34961 C3.84961,21.68164 3.46875,21.7793 3.06836,21.37891 L2.10156,20.41211 Z" id="Shape"></path>
                </g>
                <text id="Exporting" fill="#000000" font-family="Helvetica-Bold, Helvetica" font-size="13" font-weight="bold">
                    <tspan x="1289" y="1953">Exporting</tspan>
                </text>
                <text id="Symbols-should-be-outlined-when-exporting-to-ensure-the" fill="#000000" font-family="Helvetica" font-size="13" font-weight="normal">
                    <tspan x="1289" y="1971">Symbols should be outlined when exporting to ensure the</tspan>
                </text>
                <text id="design-is-preserved-when-submitting-to-Xcode." fill="#000000" font-family="Helvetica" font-size="13" font-weight="normal">
                    <tspan x="1289" y="1989">design is preserved when submitting to Xcode.</tspan>
                </text>
                <text id="template-version" fill="#000000" font-family="Helvetica" font-size="13" font-weight="normal">
                    <tspan x="2952" y="1933">Template v.1.0</tspan>
                </text>
                <text id="Generated-from-paperclip" fill="#000000" font-family="Helvetica" font-size="13" font-weight="normal">
                    <tspan x="2888" y="1951">Generated from paperclip</tspan>
                </text>
                <text id="Typeset-at-100-points" fill="#000000" font-family="Helvetica" font-size="13" font-weight="normal">
                    <tspan x="2912" y="1969">Typeset at 100 points</tspan>
                </text>
                <text id="Small" fill="#000000" font-family="Helvetica" font-size="13" font-weight="normal">
                    <tspan x="263" y="726">Small</tspan>
                </text>
                <text id="Medium" fill="#000000" font-family="Helvetica" font-size="13" font-weight="normal">
                    <tspan x="263" y="1156">Medium</tspan>
                </text>
                <text id="Large" fill="#000000" font-family="Helvetica" font-size="13" font-weight="normal">
                    <tspan x="263" y="1586">Large</tspan>
                </text>
            </g>
            <g id="Guides" transform="translate(263.000000, 625.000000)">
                <g id="H-reference" transform="translate(76.000000, 0.000000)" fill="#27AAE1" fill-rule="nonzero">
                    <path d="M54.9316,71 L57.666,71 L30.5664,0.541 L28.0762,0.541 L0.976562,71 L3.66211,71 L12.9395,46.5371 L45.7031,46.5371 L54.9316,71 Z M29.1992,3.9102 L29.4434,3.9102 L44.8242,44.291 L13.8184,44.291 L29.1992,3.9102 Z" id="Shape"></path>
                </g>
                <line x1="0" y1="71" x2="2773" y2="71" id="Baseline-S" stroke="#27AAE1" stroke-width="0.577"></line>
                <line x1="0" y1="0.541" x2="2773" y2="0.541" id="Capline-S" stroke="#27AAE1" stroke-width="0.577"></line>
                <g id="H-reference" transform="translate(76.000000, 430.000000)" fill="#27AAE1" fill-rule="nonzero">
                    <path d="M54.9316,71 L57.666,71 L30.5664,0.541 L28.0762,0.541 L0.976562,71 L3.66211,71 L12.9395,46.5371 L45.7031,46.5371 L54.9316,71 Z M29.1992,3.9102 L29.4434,3.9102 L44.8242,44.291 L13.8184,44.291 L29.1992,3.9102 Z" id="Shape"></path>
                </g>
                <line x1="0" y1="501" x2="2773" y2="501" id="Baseline-M" stroke="#27AAE1" stroke-width="0.577"></line>
                <line x1="0" y1="430.54" x2="2773" y2="430.54" id="Capline-M" stroke="#27AAE1" stroke-width="0.577"></line>
                <g id="H-reference" transform="translate(76.000000, 860.000000)" fill="#27AAE1" fill-rule="nonzero">
                    <path d="M54.9316,71 L57.666,71 L30.5664,0.541 L28.0762,0.541 L0.976562,71 L3.66211,71 L12.9395,46.5371 L45.7031,46.5371 L54.9316,71 Z M29.1992,3.9102 L29.4434,3.9102 L44.8242,44.291 L13.8184,44.291 L29.1992,3.9102 Z" id="Shape"></path>
                </g>
                <line x1="0" y1="931" x2="2773" y2="931" id="Baseline-L" stroke="#27AAE1" stroke-width="0.577"></line>
                <line x1="0" y1="860.54" x2="2773" y2="860.54" id="Capline-L" stroke="#27AAE1" stroke-width="0.577"></line>
                <rect id="left-margin" fill="#00AEEF" fill-rule="nonzero" opacity="0.4" x="1129.08" y="405.79" width="11.2408" height="119.336"></rect>
                <rect id="right-margin" fill="#00AEEF" fill-rule="nonzero" opacity="0.4" x="1233.39" y="405.79" width="11.2174" height="119.336"></rect>
            </g>
            <g id="Symbols" transform="translate(504.000000, 615.000000)">
                <g id="Black-L" transform="translate(2363.350000, 832.000000)" fill="#000000" fill-rule="nonzero">
                    <path d="M107.191,75.8945 L60.2676,122.7695 C49.1348,134 34.1934,133.1699 24.5742,123.4531 C14.8574,113.83398 14.0762,98.9902 25.3066,87.7598 L90.346,22.7207 C96.205,16.8613 105.482,14.7129 111.781,21.0117 C118.178,27.457 115.932,36.6367 110.072,42.4961 L45.4727,107.19336 C43.7637,108.951172 41.8105,108.414062 40.6875,107.33984 C39.6621,106.26562 39.1738,104.3125 40.8828,102.60352 L85.5605,57.9258 C88.832,54.6055 88.881,49.7715 85.7559,46.5977 C82.582,43.5215 77.6504,43.5703 74.4277,46.793 L29.5059,91.7148 C21.5957,99.625 21.9863,111.92969 29.0664,119.0098 C36.7812,126.7246 48.4023,126.4805 56.3125,118.57031 L121.352,53.5312 C134.877,40.0059 134.828,22.0371 122.572,9.7324 C110.512,-2.182 92.25,-2.572 78.7246,10.8555 L13.1484,76.5781 C-4.08789,93.8633 -3.3066,119.2051 12.7578,135.2695 C28.8711,151.334 54.2129,152.1641 71.498,134.9277 L118.812,87.6133 C121.938,84.5859 121.889,78.7754 118.617,75.748 C115.639,72.5254 110.414,72.7695 107.191,75.8945 Z" id="Path"></path>
                </g>
                <g id="Heavy-L" transform="translate(2068.170000, 834.000000)" fill="#000000" fill-rule="nonzero">
                    <path d="M106.166,74.2852 L59.2422,121.1602 C47.8652,132.6348 32.6309,131.6582 22.8164,121.7949 C12.9043,111.98047 12.0254,96.7949 23.4512,85.3203 L88.051,20.7695 C94.301,14.4707 103.969,12.7617 110.414,19.1582 C116.859,25.7012 115.102,35.2715 108.803,41.5215 L44.8867,105.58398 C42.7871,107.683594 40.3457,107.097656 38.8809,105.73047 C37.5625,104.31445 36.9766,101.87305 39.0762,99.72461 L83.5098,55.291 C86.439,52.3613 86.488,48.1133 83.7051,45.3301 C80.9219,42.5957 76.625,42.6445 73.7441,45.4766 L29.0664,90.1543 C21.5469,97.72266 21.9375,109.29492 28.627,115.98438 C35.9023,123.2598 46.8887,123.1133 54.4082,115.59375 L118.764,51.2383 C131.801,38.2012 131.508,20.916 119.887,9.2461 C108.412,-2.131 90.883,-2.717 77.7969,10.3203 L12.7578,75.5059 C-4.03906,92.3027 -3.1113,116.76562 12.3672,132.1953 C27.8945,147.625 52.3086,148.6504 69.1543,131.9023 L116.42,84.5879 C119.203,81.9023 119.154,76.8242 116.273,74.1387 C113.637,71.3066 109.047,71.502 106.166,74.2852 Z" id="Path"></path>
                </g>
                <g id="Bold-L" transform="translate(1773.170000, 836.000000)" fill="#000000" fill-rule="nonzero">
                    <path d="M105.092,72.7246 L58.168,119.6484 C46.498,131.3184 30.873,130.2441 20.8633,120.1367 C10.7559,110.12695 9.6816,94.5508 21.3516,82.832 L85.4629,18.7695 C92.201,12.0312 102.26,10.8105 108.803,17.3535 C115.395,23.9941 114.125,33.9551 107.387,40.6934 L44.252,103.97461 C41.7129,106.51367 38.6855,105.830078 36.8789,104.121094 C35.1699,102.31445 34.5352,99.33594 37.0254,96.79688 L81.2637,52.5586 C83.7539,50.1172 83.8027,46.4551 81.459,44.1113 C79.0664,41.8164 75.4531,41.8652 72.9629,44.3066 L28.5781,88.6914 C21.498,95.82031 21.8398,106.61133 28.1387,112.86133 C34.9258,119.6484 45.1797,119.5508 52.3086,112.42188 L115.785,48.9453 C128.334,36.3965 127.748,19.8926 116.859,8.9062 C106.068,-1.787 89.32,-2.617 76.7715,9.9316 L12.3184,74.4824 C-3.9902,90.791 -2.8184,114.22852 11.9766,129.0234 C26.8203,143.7695 50.209,144.9902 66.5664,128.6816 L113.783,81.4648 C116.176,79.1699 116.127,74.8242 113.686,72.5781 C111.439,70.1367 107.533,70.3809 105.092,72.7246 Z" id="Path"></path>
                </g>
                <g id="Semibold-L" transform="translate(1477.660000, 838.000000)" fill="#000000" fill-rule="nonzero">
                    <path d="M104.311,71.0664 L57.3867,117.9902 C45.5703,129.8555 29.6523,128.6348 19.4961,118.3809 C9.2422,108.22461 8.0703,92.4043 19.9355,80.4902 L83.6562,16.7695 C90.736,9.6895 101.088,8.8594 107.729,15.5 C114.369,22.1406 113.49,32.4434 106.41,39.5234 L43.8125,102.267578 C40.9316,105.09961 37.5625,104.36719 35.5117,102.365234 C33.5586,100.36328 32.8262,96.99414 35.6582,94.11328 L79.7012,50.1191 C81.8984,47.9219 81.9473,44.748 79.8965,42.6484 C77.7969,40.6465 74.623,40.6953 72.4258,42.8438 L28.2363,87.0332 C21.498,93.86914 21.8398,104.12305 27.7969,110.08008 C34.2422,116.5254 44.0078,116.4766 50.8438,109.64062 L113.783,46.7012 C125.941,34.543 125.209,18.5762 114.76,8.0781 C104.457,-2.176 88.295,-3.152 76.0879,9.0059 L12.0254,73.166 C-3.9414,89.1328 -2.623,111.83789 11.6836,126.1934 C26.0391,140.5 48.793,141.8184 64.7598,125.9004 L111.928,78.6836 C114.027,76.6328 114.027,72.873 111.879,70.8711 C109.877,68.7227 106.459,68.9668 104.311,71.0664 Z" id="Path"></path>
                </g>
                <g id="Medium-L" transform="translate(1181.820000, 839.000000)" fill="#000000" fill-rule="nonzero">
                    <path d="M103.725,70.2617 L56.8008,117.2344 C44.8379,129.1973 28.7246,127.9277 18.4707,117.5762 C8.1191,107.32227 6.8496,91.3066 18.8613,79.2461 L82.3379,15.8184 C89.662,8.4453 100.209,7.9082 106.898,14.5977 C113.588,21.2871 113.002,31.834 105.678,39.1582 L43.4707,101.462891 C40.3945,104.53906 36.6836,103.75781 34.4375,101.609375 C32.3379,99.36328 31.5566,95.75 34.6328,92.625 L78.5293,48.7285 C80.4824,46.7754 80.5312,43.9434 78.6758,42.0879 C76.8691,40.2812 74.0371,40.3301 72.0352,42.2832 L27.9922,86.3262 C21.4492,92.91797 21.791,102.732422 27.5527,108.49414 C33.7051,114.6465 43.1289,114.6465 49.7207,108.05469 L112.221,45.5547 C124.135,33.6406 123.256,18.0645 113.148,7.957 C103.236,-1.955 87.465,-3.078 75.5508,8.8848 L11.7812,72.6543 C-3.9414,88.377 -2.5254,110.59375 11.4883,124.5586 C25.502,138.5234 47.6699,139.9883 63.3926,124.2656 L110.561,77.0977 C112.465,75.2422 112.416,71.9219 110.512,70.1152 C108.705,68.2109 105.678,68.4062 103.725,70.2617 Z" id="Path"></path>
                </g>
                <g id="Regular-L" transform="translate(886.280000, 840.000000)" fill="#000000" fill-rule="nonzero">
                    <path d="M102.992,69.6035 L56.0195,116.5273 C43.8613,128.6855 27.5527,127.3184 17.1035,116.8203 C6.6543,106.41992 5.2383,90.1113 17.4453,77.9531 L80.5801,14.8184 C88.197,7.1523 99.086,6.957 105.824,13.6953 C112.611,20.4824 112.367,31.2734 104.701,38.9395 L43.0312,100.707031 C39.6133,104.125 35.5605,103.24609 33.0703,100.853516 C30.7266,98.41211 29.8965,94.35938 33.2168,90.9414 L76.9668,47.2402 C78.627,45.5801 78.6758,43.1875 77.1621,41.625 C75.5996,40.1113 73.207,40.1113 71.498,41.8203 L27.6992,85.668 C21.4004,91.9668 21.7422,101.244141 27.2109,106.76172 C33.0215,112.5723 41.957,112.5723 48.2559,106.27344 L110.219,44.3105 C121.791,32.7383 120.717,17.748 111.098,8.1289 C101.625,-1.344 86.439,-2.662 74.8184,8.959 L11.4883,72.3379 C-3.8926,87.7188 -2.3301,109.20312 11.1953,122.7285 C24.7695,136.2539 46.2539,137.8164 61.6348,122.4844 L108.754,75.3652 C110.365,73.7539 110.365,70.9219 108.754,69.4082 C107.191,67.7969 104.604,67.9922 102.992,69.6035 Z" id="Path"></path>
                </g>
                <g id="Light-L" transform="translate(590.940000, 842.000000)" fill="#000000" fill-rule="nonzero">
                    <path d="M102.65,67.6035 L54.8477,115.4062 C42.5918,127.6621 25.9902,126.0508 15.4434,115.5039 C4.8477,104.9082 3.2852,88.4043 15.541,76.0508 L78.6758,13.0137 C86.879,4.7617 97.963,5.5918 104.555,12.1836 C111.146,18.7266 111.928,29.8105 103.725,38.0625 L42.0059,99.830078 C38.2949,103.54102 33.7539,102.75977 30.9219,100.02539 C28.1387,97.19336 27.4551,92.65234 31.1172,88.9414 L75.6484,44.4102 C77.0645,43.043 77.0156,41.1875 75.7949,39.9668 C74.623,38.8438 72.8164,38.7461 71.4004,40.1621 L26.7715,84.791 C20.7168,90.89453 21.2051,99.439453 26.332,104.56641 C31.7031,109.9375 40.0527,110.2305 46.1074,104.17578 L108.021,42.2617 C119.301,30.9824 117.445,16.5781 108.656,7.7891 C99.965,-0.9023 85.5117,-2.855 74.1836,8.4727 L11.0977,71.6074 C-4.03906,86.7441 -1.9395,107.20312 10.9023,120.0449 C23.7441,132.8379 44.2031,134.9375 59.3398,119.8008 L107.094,72.0469 C108.461,70.7285 108.412,68.5801 107.191,67.4082 C106.02,66.1875 103.969,66.2852 102.65,67.6035 Z" id="Path"></path>
                </g>
                <g id="Thin-L" transform="translate(296.036000, 845.000000)" fill="#000000" fill-rule="nonzero">
                    <path d="M102.26,64.6035 L53.334,113.5293 C40.834,125.9316 23.9395,124.0762 13.1973,113.334 C2.5039,102.5918 0.5996,85.7461 13.0508,73.2461 L76.0879,10.2578 C85.0723,1.2246 96.498,3.4707 102.846,9.8184 C109.145,16.0684 111.391,27.4941 102.406,36.5273 L40.6387,98.29492 C36.4883,102.39648 31.3613,101.76172 28.041,98.53906 C24.7695,95.21875 24.1836,90.04297 28.2363,85.8926 L73.9395,40.2871 C74.9648,39.3105 74.7695,38.1387 74.0371,37.4551 C73.3535,36.7715 72.2793,36.5273 71.2051,37.6016 L25.5508,83.2559 C19.7891,89.06641 20.4727,96.683594 25.1602,101.37109 C29.8965,106.1562 37.5137,106.791 43.2754,100.98047 L105.092,39.2129 C115.98,28.3242 113.148,14.75 105.482,7.0352 C97.816,-0.6309 84.291,-3.4141 73.3535,7.5234 L10.6094,70.2676 C-4.2832,85.1602 -1.4023,104.1543 10.4629,116.0684 C22.377,127.9824 41.5176,130.7656 56.3125,115.9707 L104.945,67.2891 C105.873,66.4102 105.775,65.0918 105.092,64.4082 C104.408,63.7246 103.139,63.6758 102.26,64.6035 Z" id="Path"></path>
                </g>
                <g id="Ultralight-L" transform="translate(0.253000, 846.000000)" fill="#000000" fill-rule="nonzero">
                    <path d="M102.016,63.6035 L52.5527,113.0664 C39.9551,125.5664 22.9141,123.6133 12.0742,112.7734 C1.2832,101.98242 -0.7188,84.8926 11.7812,72.2949 L74.8184,9.3555 C84.1445,-0.0684 95.766,2.9102 101.967,9.1602 C108.168,15.2637 111.098,26.8359 101.723,36.3086 L39.9551,98.02734 C35.6094,102.32422 30.1406,101.78711 26.5762,98.32031 C23.0605,94.707031 22.5234,89.23828 26.8203,84.8926 L73.0605,38.7012 C73.8906,37.9199 73.5977,37.1387 73.1582,36.6992 C72.7188,36.2598 71.9863,35.9668 71.1562,36.8457 L24.9648,82.9883 C19.3008,88.65234 20.082,95.830078 24.5742,100.27344 C29.0176,104.7168 36.1953,105.5469 41.8594,99.88281 L103.578,38.1641 C114.271,27.4707 110.951,14.3359 103.822,7.207 C96.693,0.0781 83.6562,-3.1934 72.9141,7.5488 L10.3164,70.0977 C-4.38086,84.8438 -1.1582,103.1543 10.2676,114.5801 C21.6934,126.0059 40.1016,129.1797 54.75,114.5312 L103.871,65.4102 C104.555,64.7266 104.457,63.8965 104.018,63.4082 C103.578,63.0176 102.748,62.8711 102.016,63.6035 Z" id="Path"></path>
                </g>
                <g id="Black-M" transform="translate(2377.000000, 417.000000)" fill="#000000" fill-rule="nonzero">
                    <path d="M84.1172,59.8691 L47.3008,96.63672 C38.9512,105.084 27.6719,104.5469 20.3965,97.17383 C13.0723,89.89844 12.584,78.7168 21.0312,70.2695 L72.0078,19.293 C76.2559,14.9961 83.0918,13.2871 87.7305,17.9258 C92.467,22.7109 90.66,29.4004 86.3633,33.6973 L35.3867,84.82031 C34.4102,85.74805 33.3359,85.55273 32.6523,84.91797 C32.1152,84.33203 31.8711,83.2578 32.8477,82.2812 L68.248,46.8809 C71.1289,43.9512 71.1289,39.7031 68.3945,36.9199 C65.6113,34.2344 61.2656,34.2344 58.4336,37.0664 L22.8379,72.6133 C16.3438,79.1562 16.6855,89.3125 22.5449,95.12305 C28.8438,101.42188 38.4141,101.32422 44.957,94.830078 L96.324,43.4141 C107.262,32.4766 107.115,17.9746 97.252,8.0625 C87.4863,-1.6055 72.7402,-1.9473 61.8027,8.8926 L10.3867,60.4551 C-3.43164,74.3223 -2.79688,94.634766 10.0938,107.5254 C23.0332,120.3672 43.3457,121.0508 57.2129,107.2324 L94.322,70.123 C97.008,67.4863 96.959,62.4082 94.127,59.7715 C91.539,56.9883 86.9492,57.0859 84.1172,59.8691 Z" id="Path"></path>
                </g>
                <g id="Heavy-M" transform="translate(2081.600000, 419.000000)" fill="#000000" fill-rule="nonzero">
                    <path d="M83.0918,58.3086 L46.5195,94.88086 C37.9258,103.5234 26.3535,102.8887 18.8828,95.36914 C11.4121,87.94727 10.7773,76.4238 19.4688,67.7324 L69.957,17.2441 C74.5469,12.6543 81.7246,11.1406 86.5098,15.9746 C91.393,20.9062 89.83,27.9375 85.2402,32.5273 L34.9961,82.91797 C33.6777,84.23633 32.1641,83.8457 31.2363,83.01562 C30.4551,82.13672 30.1133,80.6719 31.4316,79.3535 L66.3438,44.3926 C68.9316,41.8535 68.9316,38.0449 66.4902,35.6035 C64.0488,33.2109 60.1914,33.2598 57.7012,35.75 L22.5938,70.8574 C16.4414,77.0098 16.7832,86.58008 22.252,92.0488281 C28.209,98.00586 37.2422,97.9082 43.4434,91.707031 L94.029,41.1211 C104.527,30.623 104.332,16.707 94.908,7.2344 C85.6309,-1.9453 71.4707,-2.3848 60.9238,8.0645 L10.0449,59.0898 C-3.33398,72.5176 -2.65039,92.0976562 9.752,104.5 C22.2031,116.9023 41.7832,117.6836 55.2598,104.2559 L92.125,67.3906 C94.518,65.0469 94.469,60.5547 91.979,58.2109 C89.684,55.7207 85.6309,55.8672 83.0918,58.3086 Z" id="Path"></path>
                </g>
                <g id="Bold-M" transform="translate(1786.380000, 420.000000)" fill="#000000" fill-rule="nonzero">
                    <path d="M81.9688,57.7969 L45.6406,94.125 C36.7539,103.0605 24.8887,102.2793 17.2227,94.56445 C9.5078,86.94727 8.8242,75.1309 17.7109,66.1953 L67.6621,16.2441 C72.5938,11.3125 80.1621,10.043 85.1914,15.0234 C90.221,20.1016 88.9023,27.5723 83.9707,32.5039 L34.5566,82.01562 C32.8477,83.72461 30.8945,83.23633 29.6738,82.11328 C28.5996,80.9902 28.1602,78.9883 29.8203,77.2793 L64.2441,42.9043 C66.3926,40.707 66.4414,37.4844 64.3906,35.3848 C62.291,33.3828 59.0195,33.3828 56.8711,35.5312 L22.3008,70.1016 C16.5879,75.8633 16.8809,84.75 22.0078,89.87695 C27.5254,95.39453 35.9238,95.29688 41.6855,89.53516 L91.441,39.8281 C101.451,29.7695 101.207,16.5371 92.271,7.6016 C83.5312,-1.1387 70.0547,-1.627 59.9961,8.3828 L9.7031,58.7734 C-3.23633,71.7617 -2.50391,90.511719 9.4102,102.4258 C21.3242,114.291 40.0742,115.0723 53.0625,102.1816 L89.684,65.5605 C91.734,63.5098 91.734,59.7012 89.586,57.6992 C87.584,55.5508 84.1172,55.6973 81.9688,57.7969 Z" id="Path"></path>
                </g>
                <g id="Semibold-M" transform="translate(1490.700000, 422.000000)" fill="#000000" fill-rule="nonzero">
                    <path d="M81.1875,56.1387 L45.0059,92.32031 C35.9727,101.4023 23.8633,100.5723 16.0996,92.71094 C8.2383,84.94727 7.457,72.8867 16.5391,63.8047 L66.0996,14.1953 C71.2754,9.0195 79.0879,7.9453 84.2148,13.0723 C89.391,18.248 88.2676,26.0117 83.0918,31.1875 L34.2637,80.11328 C32.3105,82.06641 29.9668,81.5293 28.5996,80.21094 C27.3301,78.8438 26.793,76.5488 28.7461,74.5469 L62.7793,40.5137 C64.6836,38.6094 64.7812,35.7773 62.9258,33.9219 C61.0703,32.1152 58.2383,32.1641 56.334,34.0684 L22.1543,68.2969 C16.6855,73.7656 16.9297,82.16406 21.7637,87.04688 C27.0371,92.32031 35.0449,92.17383 40.5137,86.70508 L89.635,37.584 C99.352,27.8672 99.01,15.0742 90.465,6.4805 C82.0664,-1.8691 69.0781,-2.4062 59.3613,7.3105 L9.4102,57.3105 C-3.1875,69.9082 -2.35742,88.121094 9.166,99.6445 C20.6895,111.168 38.9023,111.998 51.5488,99.4004 L87.9746,62.9746 C89.83,61.168 89.83,57.7988 87.9258,56.041 C86.1191,54.0879 83.0918,54.2832 81.1875,56.1387 Z" id="Path"></path>
                </g>
                <g id="Medium-M" transform="translate(1189.000000, 422.000000)" stroke="#000000" stroke-width="8">
                    <path d="M0,105 L10.5731929,74.0817069 L78.4008522,5.74014658 C78.4008522,5.74014658 83.7697774,-0.861388684 90.6431886,0.0946498066 C97.2027474,1.00740227 103.298005,7.31092989 103.97168,13.132068 C104.512877,17.8036292 97.1179111,25.3666137 97.1179111,25.3666137 L29.9555689,93.1895741 L0,105 Z M79,6 L98,24 M11,74 L30,93" id="Combined-Shape"></path>
                </g>
                <g id="Regular-M" transform="translate(899.080000, 424.000000)" fill="#000000" fill-rule="nonzero">
                    <path d="M79.8203,54.7246 L43.9316,90.61328 C34.6055,99.9883 22.0566,99.0605 14.0488,90.95508 C5.9922,82.94727 5.0645,70.4961 14.3906,61.1211 L63.3652,12.1953 C68.9805,6.5801 77.2324,5.7988 82.6035,11.1211 C87.9258,16.541 87.1445,24.7441 81.5781,30.3594 L33.7266,78.21094 C31.334,80.70117 28.4043,79.96875 26.7441,78.30859 C25.084,76.5996 24.4004,73.7676 26.793,71.2773 L60.2402,37.9277 C61.7051,36.4141 61.8027,34.2656 60.3867,32.8496 C58.9707,31.4824 56.8223,31.5801 55.3574,33.0449 L21.8125,66.5898 C16.832,71.5703 17.0273,79.1875 21.4219,83.58203 C26.207,88.36719 33.4336,88.26953 38.4629,83.24023 L86.5098,35.1934 C95.641,26.0625 95.25,14.0508 87.291,6.0918 C79.5273,-1.6719 67.3203,-2.2578 58.1895,6.873 L8.9707,56.1406 C-3.08984,68.2012 -2.16211,85.4375 8.7266,96.32617 C19.6152,107.166 36.8516,108.0938 48.9121,96.08203 L85.0449,59.9492 C86.4609,58.5332 86.4609,55.9453 84.9961,54.627 C83.5801,53.1133 81.2852,53.3086 79.8203,54.7246 Z" id="Path"></path>
                </g>
                <g id="Light-M" transform="translate(603.590000, 425.000000)" fill="#000000" fill-rule="nonzero">
                    <path d="M79.5273,53.7246 L42.8574,90.39453 C33.4336,99.8672 20.6895,98.6953 12.5352,90.54102 C4.3809,82.43555 3.2578,69.7402 12.7305,60.2188 L61.6562,11.3418 C67.7598,5.1895 76.2559,5.3848 81.4316,10.5605 C86.6074,15.7363 86.7539,24.2324 80.6504,30.3359 L32.8477,78.23633 C30.1133,80.9707 26.793,80.33594 24.7422,78.33398 C22.7891,76.33203 22.2031,73.0117 24.8887,70.2773 L59.0684,36.1465 C60.2402,34.9258 60.2402,33.2656 59.166,32.1914 C58.0918,31.1172 56.4316,31.1172 55.2109,32.3379 L20.9824,66.5664 C16.1973,71.4004 16.4902,78.33398 20.6406,82.48438 C24.9863,86.830078 31.7246,86.927734 36.5586,82.14258 L84.5566,34.1445 C93.395,25.2578 92.32,13.832 85.1426,6.6543 C78.0625,-0.4258 66.4902,-1.6465 57.6035,7.2402 L8.6289,56.2637 C-3.23633,68.1289 -1.82031,84.4375 8.4336,94.69141 C18.6875,104.8965 34.9961,106.3125 46.8125,94.49609 L83.5801,57.7773 C84.752,56.6055 84.7031,54.6523 83.5801,53.627 C82.5059,52.4551 80.6992,52.6016 79.5273,53.7246 Z" id="Path"></path>
                </g>
                <g id="Thin-M" transform="translate(308.515000, 428.000000)" fill="#000000" fill-rule="nonzero">
                    <path d="M79.1367,50.7246 L41.4902,88.41992 C31.8711,97.9902 18.834,96.623 10.5332,88.32227 C2.2812,80.07031 0.8652,67.0332 10.4844,57.4141 L59.3613,8.5371 C66.1484,1.7012 74.9375,3.166 79.8691,8.1465 C84.8496,13.0781 86.2656,21.8184 79.4785,28.6543 L31.627,76.55469 C28.502,79.63086 24.6445,79.09375 22.1543,76.70117 C19.7617,74.21094 19.2734,70.4023 22.3496,67.2773 L57.5059,32.1211 C58.3848,31.291 58.2383,30.2168 57.6035,29.582 C56.9688,28.9473 55.9434,28.8496 55.0645,29.7285 L19.9082,64.8848 C15.3672,69.4258 15.8555,75.57812 19.5664,79.28906 C23.375,83.0976562 29.4297,83.537109 34.0195,78.99609 L81.9199,31.0469 C90.416,22.5508 88.4629,11.8574 82.2617,5.6562 C76.1094,-0.4961 65.416,-2.498 56.8223,6.0469 L8.1406,54.7773 C-3.43164,66.3496 -1.38086,81.38867 8.043,90.8125 C17.4668,100.2363 32.5547,102.2871 44.127,90.71484 L81.627,53.2148 C82.457,52.4336 82.3594,51.2617 81.7246,50.627 C81.0898,49.9434 79.9668,49.9434 79.1367,50.7246 Z" id="Path"></path>
                </g>
                <g id="Ultralight-M" transform="translate(12.634000, 429.000000)" fill="#000000" fill-rule="nonzero">
                    <path d="M78.9902,49.7246 L40.7578,87.9082 C31.041,97.5762 17.9062,96.0625 9.5078,87.71289 C1.1582,79.36328 -0.3555,66.1797 9.3125,56.4629 L58.1895,7.6836 C65.3184,0.457 74.2539,2.6055 79.0879,7.4395 C83.9707,12.2246 86.0215,21.1602 78.8926,28.3379 L30.9922,76.18945 C27.6719,79.46094 23.5703,79.02148 20.8359,76.38477 C18.1992,73.69922 17.7598,69.5488 21.0312,66.2285 L56.7246,30.6328 C57.4082,29.9492 57.2129,29.2168 56.7734,28.8262 C56.3828,28.3867 55.6992,28.1914 54.9668,28.9238 L19.3711,64.5684 C14.9277,68.9629 15.5137,74.67578 19.0293,78.19141 C22.5938,81.755859 28.2578,82.292969 32.7012,77.89844 L80.5527,30.0469 C88.9023,21.6973 86.5098,11.3945 80.7969,5.6816 C75.084,0.0176 64.8301,-2.4238 56.4316,5.9746 L7.8965,54.5098 C-3.5293,65.9844 -1.13672,80.38867 7.8477,89.37305 C16.832,98.4062 31.334,100.75 42.7109,89.32422 L80.6504,51.4336 C81.2363,50.7988 81.1875,50.0176 80.7969,49.627 C80.3574,49.1875 79.5762,49.1387 78.9902,49.7246 Z" id="Path"></path>
                </g>
                <g id="Black-S" transform="translate(2387.820000, 0.000000)" fill="#000000" fill-rule="nonzero">
                    <path d="M66.4629,46.6738 L37.6543,75.43359 C31.0625,82.07422 22.2246,81.634766 16.5117,75.87305 C10.75,70.1602 10.3594,61.3711 17,54.7305 L56.8926,14.8379 C60.2617,11.4688 65.6328,10.1016 69.2949,13.7637 C73.0059,17.5234 71.5898,22.7969 68.2207,26.166 L28.3281,66.1562 C27.5469,66.9375 26.668,66.7422 26.1309,66.2539 C25.6914,65.7656 25.4961,64.8867 26.2773,64.1055 L53.9629,36.4199 C56.209,34.1738 56.209,30.8535 54.0605,28.7051 C51.9121,26.6055 48.543,26.6055 46.3457,28.8027 L18.5137,56.6348 C13.4355,61.7129 13.7285,69.623 18.2695,74.16406 C23.2012,79.0957 30.6719,78.99805 35.75,73.91992 L75.9355,33.7344 C84.4805,25.1895 84.3828,13.8613 76.668,6.0977 C69.0508,-1.4219 57.5273,-1.7148 48.9824,6.7812 L8.748,47.1133 C-2.04297,57.9531 -1.55469,73.82227 8.5039,83.88086 C18.6113,93.9395 34.4805,94.4766 45.3203,83.68555 L74.373,54.6328 C76.4727,52.582 76.4238,48.627 74.2266,46.5762 C72.2246,44.4277 68.6602,44.5254 66.4629,46.6738 Z" id="Path"></path>
                </g>
                <g id="Heavy-S" transform="translate(2091.980000, 1.000000)" fill="#000000" fill-rule="nonzero">
                    <path d="M65.6816,46.0156 L37.1172,74.53125 C30.3789,81.31836 21.3457,80.830078 15.5352,74.9707 C9.627,69.1113 9.1875,60.127 15.9746,53.3398 L55.5254,13.7891 C59.041,10.2246 64.6562,8.9551 68.4648,12.7637 C72.3223,16.6699 71.0039,22.1875 67.4395,25.7031 L28.1328,65.1074 C27.1074,66.1328 25.9355,65.8398 25.252,65.2051 C24.666,64.5703 24.373,63.3984 25.3984,62.373 L52.6445,35.127 C54.6465,33.125 54.6953,30.1465 52.7422,28.1934 C50.7891,26.2891 47.7617,26.3379 45.7598,28.291 L18.416,55.6836 C13.582,60.5176 13.8262,68.0371 18.123,72.38281 C22.8594,77.07031 29.9395,76.92383 34.7734,72.08984 L74.373,32.4902 C82.625,24.2871 82.5273,13.3496 75.1055,5.8301 C67.7812,-1.3965 56.6484,-1.6895 48.3965,6.5137 L8.5039,46.4551 C-1.99414,57.002 -1.50586,72.43164 8.2598,82.19727 C18.0742,91.9629 33.5039,92.5 44.0508,82.00195 L72.8594,53.1934 C74.7637,51.3379 74.7148,47.7734 72.7129,45.918 C70.9062,43.9648 67.6836,44.0625 65.6816,46.0156 Z" id="Path"></path>
                </g>
                <g id="Bold-S" transform="translate(1796.250000, 2.000000)" fill="#000000" fill-rule="nonzero">
                    <path d="M64.8516,45.3574 L36.5801,73.62891 C29.6465,80.61133 20.3691,80.07422 14.4121,74.01953 C8.4062,68.0625 7.8691,58.834 14.8516,51.9004 L53.9629,12.7402 C57.7227,8.9805 63.6309,7.7598 67.5859,11.7637 C71.5898,15.7676 70.3203,21.5781 66.5605,25.3379 L27.8887,64.1074 C26.6191,65.377 25.1543,64.9863 24.3242,64.1562 C23.543,63.3262 23.1523,61.8613 24.4219,60.5918 L51.1309,33.834 C52.8887,32.0762 52.9863,29.4395 51.2773,27.7305 C49.5684,26.0703 46.9316,26.1191 45.1738,27.877 L18.2695,54.7812 C13.7773,59.3223 13.9238,66.4023 18.0254,70.45508 C22.4688,74.89844 29.1582,74.75195 33.6992,70.21094 L72.6152,31.2461 C80.5742,23.3359 80.5254,12.8379 73.3477,5.6602 C66.3164,-1.2734 55.623,-1.5176 47.7129,6.3438 L8.2598,45.8945 C-1.89648,56.0508 -1.4082,70.99219 8.0156,80.41602 C17.4883,89.8398 32.4297,90.377 42.5859,80.2207 L71.1504,51.7051 C72.8105,50.0449 72.8105,46.9199 71.0527,45.2598 C69.3926,43.5508 66.6094,43.6973 64.8516,45.3574 Z" id="Path"></path>
                </g>
                <g id="Semibold-S" transform="translate(1500.220000, 3.000000)" fill="#000000" fill-rule="nonzero">
                    <path d="M64.2656,44.6504 L36.1895,72.72656 C29.1582,79.80664 19.7344,79.2207 13.6797,73.11719 C7.5762,67.0625 6.9902,57.6387 14.0703,50.5586 L52.9375,11.7402 C56.8438,7.834 62.8984,6.6621 66.9512,10.7637 C71.0527,14.8652 69.8809,20.8711 65.9746,24.7773 L27.7422,63.0586 C26.3262,64.5234 24.6172,64.0352 23.6406,63.1074 C22.7129,62.1797 22.2734,60.5195 23.7383,59.0547 L50.1055,32.6387 C51.7168,31.0762 51.8145,28.6836 50.252,27.1211 C48.6895,25.6562 46.3457,25.7051 44.7344,27.2676 L18.2207,53.8301 C13.875,58.1758 14.0215,64.9629 17.9277,68.86914 C22.1758,73.11719 28.6211,72.92188 32.9668,68.57617 L71.4434,30.0996 C79.1094,22.4336 79.1094,12.2285 72.1758,5.2461 C65.3398,-1.541 54.9395,-1.7363 47.2734,5.9297 L8.1133,45.1875 C-1.84766,55.0996 -1.35938,69.69922 7.8691,78.927734 C17.0977,88.1074 31.6484,88.6445 41.6094,78.683594 L69.9785,50.3633 C71.4922,48.8496 71.4922,46.0176 69.8809,44.5527 C68.416,42.9414 65.8281,43.1367 64.2656,44.6504 Z" id="Path"></path>
                </g>
                <g id="Medium-S" transform="translate(1204.020000, 3.000000)" fill="#000000" fill-rule="nonzero">
                    <path d="M63.8262,44.8457 L35.8965,72.77539 C28.7676,79.95312 19.2461,79.31836 13.0938,73.16602 C6.9414,67.0137 6.3066,57.541 13.4844,50.3633 L52.1074,11.6914 C56.1113,7.6875 62.3125,6.5645 66.5117,10.7148 C70.6621,14.9629 69.5391,21.1152 65.5352,25.0703 L27.6445,63.0586 C26.0332,64.6699 24.1777,64.1328 23.1523,63.1074 C22.127,62.0332 21.6387,60.2266 23.2012,58.6152 L49.373,32.4922 C50.7891,31.0273 50.9355,28.8301 49.4707,27.4141 C48.0547,26.0469 45.8574,26.0957 44.4414,27.5605 L18.1719,53.8301 C13.9727,58.0293 14.0703,64.6211 17.8789,68.38086 C21.9805,72.48242 28.1816,72.33594 32.3809,68.08789 L70.5645,29.9531 C78.0352,22.4336 78.0352,12.4727 71.248,5.6855 C64.6074,-0.9551 54.4512,-1.1504 46.9316,6.3691 L7.9668,45.3828 C-1.79883,55.1484 -1.31055,69.45508 7.7227,78.537109 C16.8047,87.52148 31.1113,88.0586 40.877,78.292969 L69.0996,50.0703 C70.5156,48.7031 70.5156,46.1152 69.002,44.748 C67.6348,43.2344 65.291,43.4297 63.8262,44.8457 Z" id="Path"></path>
                </g>
                <g id="Regular-S" transform="translate(907.990000, 4.000000)" fill="#000000" fill-rule="nonzero">
                    <path d="M63.2891,44.0898 L35.5059,71.82422 C28.2793,79.14844 18.5625,78.46484 12.3613,72.21484 C6.1113,65.9648 5.4277,56.3457 12.7031,49.0215 L51.082,10.6914 C55.2324,6.541 61.5801,5.4668 65.877,9.7148 C70.125,14.0605 69.0508,20.3594 64.9492,24.5098 L27.498,62.0098 C25.7402,63.8164 23.6406,63.1816 22.4688,62.0586 C21.3457,60.8867 20.8086,58.8848 22.5664,57.0781 L48.3477,31.2969 C49.6172,29.9785 49.7637,28.0742 48.4941,26.8047 C47.2246,25.584 45.2715,25.6816 44.002,26.9512 L18.0742,52.8789 C14.1191,56.9316 14.168,63.1816 17.7812,66.7949 C21.7363,70.70117 27.6445,70.50586 31.6973,66.502 L69.3438,28.8066 C76.6191,21.5312 76.6191,11.8145 70.0762,5.2715 C63.6309,-1.1738 53.7676,-1.3691 46.4922,5.9062 L7.8203,44.6758 C-1.75,54.1973 -1.26172,68.16211 7.5762,77 C16.4141,85.78906 30.3789,86.27734 39.9004,76.755859 L67.9277,48.7285 C69.1973,47.5078 69.1973,45.2129 67.8789,43.9922 C66.6094,42.625 64.5586,42.8691 63.2891,44.0898 Z" id="Path"></path>
                </g>
                <g id="Light-S" transform="translate(612.360000, 6.000000)" fill="#000000" fill-rule="nonzero">
                    <path d="M63.0449,42.0898 L34.627,70.50781 C27.2539,77.88086 17.3418,77.05078 11.043,70.70312 C4.6953,64.4043 3.8652,54.541 11.2383,47.1191 L49.5684,8.8379 C54.1582,4.1992 60.75,4.0039 64.8516,8.1055 C69.002,12.2559 68.7578,18.7988 64.168,23.3887 L26.668,60.8887 C24.666,62.9395 22.2246,62.4023 20.7598,60.9863 C19.3438,59.5215 18.8555,57.1289 20.8574,55.0781 L47.3223,28.6133 C48.3477,27.5391 48.3965,26.0742 47.4199,25.0977 C46.4434,24.1211 44.9785,24.1699 43.9043,25.1953 L17.3906,51.7578 C13.5332,55.6152 13.7285,61.3281 17.0977,64.6484 C20.6621,68.21289 26.1309,68.21289 29.9883,64.4043 L67.6348,26.7578 C74.666,19.7266 74.0801,10.5469 68.1719,4.5898 C62.3125,-1.2207 53.0352,-1.9043 45.9551,5.127 L7.4785,43.6523 C-1.84766,53.0273 -0.96875,66.16211 7.332,74.414062 C15.584,82.66602 28.7676,83.59375 38.0938,74.267578 L66.6582,45.7031 C67.6836,44.7266 67.6348,42.9199 66.6582,41.9922 C65.6816,40.9668 64.0703,41.1133 63.0449,42.0898 Z" id="Path"></path>
                </g>
                <g id="Thin-S" transform="translate(317.087000, 8.000000)" fill="#000000" fill-rule="nonzero">
                    <path d="M62.7031,40.0898 L33.4062,69.38672 C25.8867,76.90625 15.7305,75.88086 9.2852,69.38672 C2.791,62.9414 1.76562,52.7852 9.2852,45.2656 L47.5664,6.9844 C52.7422,1.8086 59.5781,2.6875 63.5332,6.5938 C67.4395,10.5 68.3184,17.3359 63.1426,22.5605 L25.6426,60.0605 C23.25,62.4043 20.3691,61.9648 18.5137,60.1582 C16.707,58.3027 16.2676,55.4219 18.6113,53.0293 L46.0039,25.7344 C46.7363,25.002 46.6387,24.0254 46.0527,23.4395 C45.4668,22.8535 44.5879,22.8047 43.8066,23.5371 L16.4141,50.9297 C12.8496,54.543 13.1914,59.4746 16.1699,62.502 C19.2461,65.57812 24.1289,65.87109 27.7422,62.2578 L65.291,24.709 C72.0293,17.9707 70.6621,9.4258 65.6328,4.3965 C60.6035,-0.6328 52.1074,-2.0488 45.3203,4.7383 L7.0879,42.9707 C-2.04297,52.1016 -0.5293,64.11328 6.9902,71.68164 C14.5586,79.20117 26.6191,80.66602 35.7012,71.58398 L64.9492,42.3359 C65.6328,41.6523 65.6328,40.5781 64.998,39.9922 C64.4121,39.3574 63.4355,39.4062 62.7031,40.0898 Z" id="Path"></path>
                </g>
                <g id="Ultralight-S" transform="translate(21.109000, 9.000000)" fill="#000000" fill-rule="nonzero">
                    <path d="M62.5566,39.0898 L32.7715,68.875 C25.2031,76.44336 14.9004,75.27148 8.3574,68.72852 C1.86328,62.23438 0.69141,51.9316 8.2598,44.3633 L46.541,6.1309 C52.0586,0.5645 58.9922,2.0293 62.8496,5.8867 C66.6582,9.6465 68.0742,16.6289 62.6055,22.1465 L25.1055,59.6465 C22.5664,62.13672 19.3926,61.7949 17.3418,59.793 C15.3398,57.7422 14.9492,54.5684 17.4883,52.0293 L45.3203,24.2461 C45.8574,23.6602 45.7598,23.0254 45.3691,22.6348 C44.9785,22.2441 44.3438,22.0977 43.7578,22.7324 L15.9746,50.5156 C12.459,54.0312 12.8984,58.6211 15.6816,61.4043 C18.5625,64.28516 23.1035,64.67578 26.6191,61.1602 L64.1191,23.6602 C70.7109,17.0684 68.9043,8.9141 64.3145,4.3242 C59.7246,-0.2656 51.6191,-2.0723 44.9785,4.5684 L6.8926,42.6543 C-2.0918,51.6387 -0.33398,63.11328 6.8438,70.29102 C14.0215,77.46875 25.4961,79.17773 34.4805,70.24219 L64.0703,40.6035 C64.6074,40.1152 64.5586,39.3828 64.168,38.9922 C63.7773,38.6016 63.0938,38.5527 62.5566,39.0898 Z" id="Path"></path>
                </g>
            </g>
        </g>
    </g>
</svg>